<?xml version="1.0" encoding="UTF-8"?><svg id="white" xmlns="http://www.w3.org/2000/svg" viewBox="0 0 1133.91 558.72"><defs><style>.cls-1{fill:#fff;}</style></defs><path class="cls-1" d="M1020.34,101.46c4.99,3.64,15.64,13.83,19.22,18.77,1.02,1.41,2.04,4.57,3.02,5.64.43.47,1.22.34,1.61.79,3.54,4.07,5.89,8.44,9.23,12.45,2.47,2.97,1.44,1.93,3.08,5.22,1.44,2.88,4.63,5.19,6.13,7.7,1.13,1.9,1.62,4.94,2.66,6.55.63.97,1.7,1.16,2.4,2.21.82,1.24,1.46,3.72,2.23,5.15,3.03,5.64,7.22,11.59,4.45,18.42-.62,1.54-5.14,7.98-6.49,10.19-6.28,10.26-11.87,18.39-19.9,27.33-10.31,11.48-20.28,21.69-33.51,30.31-2.37,1.55-5.56,2.05-7,3.02-.54.36-.8,1.36-1.45,1.89-2.42,1.93-3.26,2.56-6.46,2.72-1.97.1-7.1.7-5.55-2.28l22.77-16.4c2.52-3.45,6.84-5.22,9.84-7.55,1.46-1.13,8.06-7.88,9.8-9.67,3.01-3.11,6.79-9.78,9.56-12.32,4.17-3.83,5.05-5.19,8.25-9.95,1.53-2.27,3.41-4.69,4.89-7.09,2.51-4.05,7.22-13.35,7.02-17.9-.1-2.25-1.2-3.04-1.66-4.82-.81-3.17-.07-6.53-3.43-8.31-.7,4.05-1.29,8.14-1.84,12.22-2.06,15.05-8.38,23.6-17.95,35.05-17.08,20.42-37.53,37.75-62.08,48.5l-12.57.09c.31-3.87,5.19-4.48,7.99-6.06,7.64-4.29,15.2-8.96,22.45-13.95,5.85-4.02,14.11-8.54,19.09-13.62.8-.82,1-1.94,1.83-2.78.9-.92,3.04-1.63,3.78-2.44,1.95-2.11,3.25-4.75,5.89-7.25,6.33-6.01,10.36-10.02,15.65-17.07,8.81-11.76,16.05-37.18,5.79-49.51-1.14-1.37-3.24-3.92-5.05-2.98-.42.59,2.52,8.31,2.98,9.66.72,2.07,1.76,3.09,2.01,5.82.76,8.02-1.11,12.86-3.76,20.09-.77,2.11-1.29,5.47-2.06,7.16-.65,1.42-3.19,2.37-4.19,4.1-.79,1.36-.74,2.93-1.35,4.18-3.43,7.12-11.56,14.73-17.6,20.18-13.55,12.22-30.95,24.85-46.85,33.78-1.75.98-12.47,6.19-13.51,4.69-.33-1.67,1.06-2.65,1.57-3.73.88-1.88,1.42-4.15,3.26-5.5.86-.63,2.16-.79,3.15-1.46,15.57-10.46,28.19-18.06,42.54-30.49,12.84-11.12,25.29-23.8,29.05-40.76,2.09-9.41.35-16.12-1.12-25.34-1.08-6.74-.68-11.21-4.08-17.58-1.67-3.13-9.03-13.44-11.51-15.68-1.4-1.26-4.59-2.72-6.18-3.97-3.02-2.37-6.03-5.42-9.26-7.78-9.26-6.75-22.82-13.53-34.05-16.18-2.99-.71-12.37-1.6-15.44-1.52-3.84.11-10.1,3.48-13.92,3.97-6.82.87-7.62,1.12-13.32,5.1-12.16,8.5-21.49,15.86-30.37,28.14-1.39,1.92-3.96,3.46-4.9,5.24-.87,1.63-.55,2.83-1.07,4-.66,1.5-3.46,4.1-4.26,5.39-3.17,5.13-5.35,11.62-8.45,16.81-1.78,2.98-4.78,6.19-6.6,9.64-1.94,3.7-2.29,4.4-5.16,7.75-1.19,1.39-1.7,2.44-2.47,3.4-2.85,3.53-6.44,3.48-10.84,3.3-4.63-.19,1.5-7.18,2.98-8.75.93-.98,2.94-1.9,3.73-3.2.64-1.06.69-2.38,1.44-3.63,1.48-2.45,3.92-4.5,5.46-6.98,3.48-5.63,7.09-13.76,10.2-19.75,2.64-5.08,9.44-12.65,13.04-18.3,9.05-14.21,31.88-30.21,47.8-35.6,7.47-2.53,17.72-3.4,25.48-3.19,5.93.16,18.32,2.95,23.84,5.73,1.47.74,3.19,2.48,4.61,3.22,1.76.91,4.69,1.54,6.63,2.58,4.04,2.16,6.79,5.6,10.32,8.12,2.46,1.76,6.09,3.22,8.57,5.03Z"/><path class="cls-1" d="M1007.44,452.17c6.62,7.68,12.2,20.21,14.46,30.05,1.42,6.19,3.21,14.18,1.59,20.48-.99,3.84-5.63,14.23-7.75,17.6-2.14,3.41-11.59,12.76-15.06,14.88-7.7,4.7-17.34,7.73-26.45,6.21l-.45.9c-11.85-1.85-24.31-9.21-31.59-18.62-5.99-7.74-9.81-23.28-9.23-33.2.8-13.83,13.52-32.29,28.05-34.2,1.88-.25,7.5.19,9.46.4,3.26.35,12.63,5.5,15.27,7.77,1.6,1.37,8.86,11.91,9.26,13.68.25,1.11-.32,2.99-.18,3.97.59,4.14,1.32,5.92,1.29,10.73-.01,2.56-.1,6.65-.76,8.85-1.2,3.98-3.39,10.16-7.44,13.03-2.71,1.92-3.44,1.41-6.28,1.89-3.33.56-3.83,1.17-7.44-.02-2.35-.77-9.16-6.08-10.11-8.32-.55-1.3-.59-3.67-1.16-4.72-.3-.56-1.04-.56-1.38-1.01-1.49-1.95-.21-3.88-.48-5.97-.45-3.5-2.04-7.32-.68-11.13.08-.22,1.92-3.11,2.08-3.21.69-.42,4.56-.43,5.12.07.48.43,2.05,5.15,2.1,5.99.1,1.93.09,5.78-.08,7.75-.04.49-.67,1.01-.72,1.85-.1,1.54,2.82,6.94,3.93,8.1,3.17,3.29,9.75,4.32,12.62.13,1.62-2.37,3.48-14.29,3.27-17.37-.15-2.16-3.33-10.5-4.5-12.59-3.26-5.85-13.3-12.95-20.08-12.1-20.67,2.62-25.48,22.69-21.25,40.54,2.76,11.64,12.36,21.33,22.25,27.18,3.65,2.16,13.53,2.86,17.81,2.25,3.76-.53,14.52-3.85,16.88-6.62,4.69-5.52,8.93-8.27,11.21-15.88.66-2.19.84-5.91,1.49-7.91.86-2.63,2.2-4.44,2.47-7.58.34-3.91-1.36-13.78-2.51-17.72-.83-2.83-2.71-5.27-3.5-7.6-.38-1.11-.19-2.38-.71-3.86-.93-2.65-8.93-13.02-11.13-15.26-6.15-6.24-20.73-11.9-29.37-12.01-24.44-.3-40.35,15.35-49.13,37.04-6.25,15.43-4.2,35.65,5.01,49.51,1.01,1.52,3.65,3.11,3.33,5.36-1.01,3.15-8.16-3.11-9.18-4.55-2.05-2.92-1.48-2.5-4.1-5.12-.6-.6-6.97-14.16-7.22-15.36-1.85-8.73.65-13.15,2.55-21.05.89-3.69.77-7.15,2.3-11.02,5.22-13.2,14.06-26.13,26.13-33.77,3.56-2.25,14.47-7.32,18.36-7.48,15.43-.61,27.07.15,40.36,8.94,3.48,2.3,8.56,6.97,11.29,10.13Z"/><path class="cls-1" d="M1034.18,60.88c4.44,3.42,10.22,7.21,14.45,11.12,1.45,1.34,2.63,2.33,4.14,3.69,5.35,4.84,9.95,10.58,15.16,15.71,1.93,1.9,4.34,3.08,6.25,5.27,9.04,10.42,18.91,23.93,24.82,36.47,1.28,2.71,1.9,5.71,3.53,8.78,1.84,3.46,1.66,3.86,2.95,7.32.93,2.48,3.43,5.47,4.61,8.29,2.9,6.93,5.26,16.9,7.47,24.33,1.15,3.88,4.15,17.35,4.32,21.04.13,2.87-.63,6.36-2.61,8.51-1.55.46-2.31-2.1-2.7-3.21-4.4-12.61-6.44-26.86-11.11-39.58-3.08-8.4-6.48-16.99-10.42-25.06-7.04-14.44-16.75-30.23-28.11-41.66-2.45-2.47-4.69-6.1-7.5-8.9-4.78-4.74-12.29-11.52-17.51-15.66-1.42-1.13-4.02-2.22-5.07-3.22-.76-.72-.87-1.81-1.38-2.31-.69-.67-1.93-.62-2.77-1.37-.79-.71-.88-1.95-1.62-2.53-1.45-1.14-6.49-3.16-8.52-4.39-8.6-5.23-16.15-9.35-25.59-13.11-18.29-7.29-35.05-4.36-54.05-2.06-6.06.73-10.05,3.94-15.47,5.72-14.46,4.76-38.73,17.56-49.01,28.85-11.72,12.87-22.84,29.24-31.81,44.23-1.85,3.1-2.41,4.87-4.67,7.76-5.5,7.01-9.92,13.77-16.03,20.15-2.83,2.95-9.7,10.48-12.8,12.31-.79.46-4.58,2.15-5.27,2.11-2.78-.15-3.15-6.04-2.28-7.81.34-.71,2.64-1.75,3.46-2.53,4.45-4.16,8.73-8.53,12.45-13.38,1.35-1.76,2.22-3.92,3.2-5.07.97-1.14,3.81-2.33,4.94-3.58,1.29-1.42,2.71-4.69,3.84-6.43,4.14-6.37,8.48-13.26,13.14-19.22,5.22-6.68,9.71-13.56,14.57-20.45,3.75-5.31,10.78-10.32,15.13-15.28,2.31-2.63,3.22-4.72,6.22-7.14,11.73-9.45,24.69-16.85,38.67-22.15,2.47-.94,13.24-5.25,14.79-5.49,13.61-2.09,24.4-2.62,38.23-2.77,17.18-.19,46.1,12.01,59.97,22.7Z"/><path class="cls-1" d="M1033.68,42.95c7.25,3.97,13.5,9.36,20.23,14.09,4.03,2.83,6.19,6.41,9.65,9.24,1.6,1.31,4.64,2.39,6.25,3.88,2.09,1.93,5.21,7.23,7.35,9.7,1.04,1.2,2.7,2.22,3.53,3.16,3.27,3.74,5.52,6.71,8.26,10.86,2.18,3.3,4.61,6.49,6.84,9.75,10.7,15.61,20.45,33.55,26.5,51.84,1.38,4.18,1.18,4.82,1.95,8.62.6,2.96,2.48,4.88,3.16,9.3.96,6.26,2.65,12.84.59,19.49-.66,2.11-1.43,3.05-3.83,2.89-.01-.8.1-1.63-.11-2.43-.97-3.6-2.73-10.19-3.32-13.65-.4-2.35.71-3.77-.48-7.43-1.74-5.35-4.12-12.1-6.13-17.37-1.65-4.33-6.22-11.19-7.15-14.97-.36-1.46.07-2.46-.19-3.47s-4.36-6.54-5.27-8.11c-1.92-3.31-3.58-6.86-5.51-10.15-5.07-8.65-10.54-15.87-16.72-23.83-4.56-5.87-10.02-10.3-15.19-15.68-14.08-14.66-30.92-26.13-49.08-35.7-4.56-2.4-17.11-7.12-22.1-8.31-2.53-.6-5.6-.24-8.05-.7-6.68-1.25-8.6-2.39-16.18-2.28-30.46.46-62.02,10-85.47,29.71-3.29,2.76-7.39,5.96-10.57,8.78-1.91,1.69-3.08,4.31-4.82,6.24-.9,1-2.34,1.4-2.55,2.75l-.91-.92c.02.59-.15,1.12-.47,1.62-3.17,4.99-9.04,10.02-11.97,14.75-.83,1.34-1.26,3.51-2.3,4.61-.87.93-2.31,1.28-3.48,2.51-1.71,1.81-3.19,4.97-4.84,7.14-1.07,1.4-2.87,2.54-3.87,3.96-3.62,5.11-6.31,11.41-10.18,16.56-3.16,4.2-6.32,8.34-9.43,12.68-.88,1.24-8.38,9.31-9.22,9.67-1.21.52-3.1.53-3.87-.67-.35-.55,2.21-8.24,2.76-9.19,3.29-5.6,9.14-12.98,13.09-18.58,4.09-5.78,8.42-11.24,12.63-16.98,18.2-24.83,34.65-48.71,62.88-62.92,6.15-3.1,16.83-9.53,23.06-11.49,1.73-.55,4.36-.33,6.13-.78,2.14-.54,4.95-2.37,7.25-2.92,15.37-3.69,35.59-5.11,51.23-2.36,18.52,3.25,33.28,7.96,49.95,17.1Z"/><path class="cls-1" d="M1026.65,72.56c1.38,1.03,3.46,1.98,4.55,2.92.78.67,1.45,2.43,2.06,2.8.75.45,1.95.35,2.77.8,3.61,1.95,4.76,5.04,7.49,7.71,2.9,2.83,6.78,5.23,9.7,7.81,2.21,1.96,4.28,4.94,6.57,7.02,13.08,11.87,26.3,33.26,33.27,49.91,1.33,3.18,3.68,6.98,4.58,9.7.63,1.92.57,4.02,1.18,5.73,2.42,6.82,4.46,13.85,6.88,20.77.59,1.69,3.29,5.54,2.78,7.29-.12.41-.59.3-.9.29v.45c.59,0,1.02.24,1.29.78.71,1.4,1.07,5.62,1.69,7.53,1.05,3.23,3.48,7.33,4.19,10.59.09.43.51,4.42.46,4.65-.16.75-.96.84-1.04,1.03-1.01,2.33-3.02,9.92-5.44,3.53-2.63-6.97-2.73-16.11-5.29-22.36-4.58-11.24-8.07-22.71-12.56-33.99-4.02-10.11-10.03-26.2-16.77-34.38-5.89-7.15-10.78-15.78-17.2-22.9-3.9-4.32-10.18-8.17-14.32-12.4-1.28-1.31-2.43-3.35-4.19-5.01-10.44-9.83-30.44-23.78-43.72-28.64-14.64-5.35-28.01-8.27-43.53-4.89s-27.74,8.97-41.29,16.35c-2.12,1.15-5.16,1.99-6.98,3.06-4.44,2.61-12.82,12.52-16.68,16.59-3.06,3.22-5.55,4.88-8.09,8.86-3.95,6.18-8.49,12.94-12.49,19.86-4.22,7.31-9.16,14.36-13.66,21.36-4.12,6.41-8.21,11.51-13.2,17.22-2.42,2.77-5.88,4.87-8.54,7.58-1.07,1.09-1.23,2.27-3.21,2.78-1.82.47-8.4.47-10.4.24-5.05-.59,3.58-6.58,4.89-7.6,12.15-9.45,15.97-15.6,24.86-27.67,1.79-2.44,3.95-3.72,5.4-6.58,6.09-12,13.94-23.65,22.46-34.22,5.51-6.83,12.36-15.43,19.61-20.47,16.59-11.53,40.15-22.71,60.01-24.4,5.63-.48,8.87-2.1,15.14-1.56,8.92.77,20.53,2.95,28.62,6.44,10.86,4.69,19.48,8.23,29.05,15.42Z"/><path class="cls-1" d="M1009.75,77.95c2.51,1.63,5.48,3.47,7.95,5.17,1.86,1.28,3.5,3.9,5.33,5.27,1.55,1.16,4.19,1.98,5.74,3.02,8.13,5.45,15.38,14.23,21.9,21.41,5.58,6.15,13.2,13.64,17.67,20.58,1.99,3.1,3.64,8.32,5.59,11,.82,1.12,2.17,1.15,2.94,2.17,1.02,1.34.96,2.98,1.57,4.37,2.66,6.04,5.04,12.34,7.88,18.39,2.8,5.97,4.97,10.6,7.09,16.88,2.95,8.74,5.49,17.43,7.82,26.28,1.09,4.14,4.54,11.74,4.98,15.3.29,2.34-.14,5.33-.11,7.75-.17.88-5.03,3.83-5.43,3.55-.75-4.13-1.86-8.23-2.67-12.35-.18-.93.25-1.82.12-2.46-2.63-12.74-8.12-27.19-13.16-39.31-.65-1.56-2.21-1.8-3.13-3.76-4.63-9.91-9.08-24.24-14.8-33.12-4.45-6.9-10.52-14.72-15.67-21.19-13.21-16.62-27.75-30.74-45.93-41.72-25.55-15.43-54.05-17.76-80.45-3.15-5.51,3.05-12.06,6.78-17.12,10.53-1.52,1.13-1.74,2.83-2.75,3.7-1.26,1.08-4.39,2.69-5.63,3.81-1.98,1.8-6.71,7.55-8.44,9.76-12.35,15.8-21.36,33.86-32.4,50.54-1.35,2.04-8.63,11.49-10.11,12.69-.28.23-4.02,2.41-4.26,2.45-.41.08-5.94-.36-6.38-.49-1.51-.45-1.98-1.08-1.31-2.61.11-.25,2.57-3.68,2.88-4.05,2.4-2.79,5.09-3.24,7.3-6.53,3.98-5.94,9.13-11.54,12.39-17.56,1.2-2.2,1.76-4.75,3.15-6.99,1.61-2.59,4.14-4.08,5.64-6.34,1.57-2.36,1.68-4.96,2.76-7.38,5.76-12.96,17.16-21.98,26.81-31.71.92-.93,1.29-2.44,2.74-3.71,7.35-6.42,16.3-10.24,24.55-15.11,3.47-2.05,22.92-7.52,27.31-8.12,19.94-2.72,40.8,2.12,57.64,13.04Z"/><path class="cls-1" d="M1045.21,34.19c5.6,4.13,11.49,7.15,17.06,11.5,7,5.47,13.41,12.33,20.45,17.57,2.12,1.58,3.54,4.96,5.33,7.11,5.69,6.85,16,17.64,19.81,25.39,1.24,2.52,1.9,4.93,3.5,7.98,8.67,16.52,21.57,35.15,22.5,54.45.06,1.34.35,3.05-1.07,3.61-2.07.93-4.1-3.1-4.81-4.64-1.87-4.05-2.98-8.53-4.39-12.66-6.04-17.61-15.25-30.04-25.15-45.35-1.26-1.94-2.39-5.55-3.55-7.51-.92-1.55-4.16-4.39-5.65-6.33-7.04-9.16-12.67-16.87-21.69-24.39-6.52-5.44-15.49-14.16-22.66-17.88-1.54-.8-4.02-1.33-5.55-2.28-1.64-1.01-2.72-2.88-4.11-3.72-19.81-11.96-47.35-18.25-70.22-18.2-5.43.01-11.62.34-17.03.86-8.97.86-17.82,3.52-26.62,5.67-5.66,1.38-7.73,3.73-12.66,5.77-9.13,3.79-15.69,6.98-24.06,12.34-9.42,6.04-21.53,15.99-29.05,24.4-5.47,6.13-10.3,15.57-15.46,21.4-.54.61-1.53.52-2.06,1.17-5.03,6.19-10.32,12.59-14.71,19.04-4.46,6.57-7.93,14.01-12.73,20.33-.49.65-1.68,1.34-1.99.22l1.93-10.89c6.52-18.03,19.02-30.55,31.13-44.44,3.18-3.65,5.23-8.34,7.91-11.9,3.01-4,10.2-9.37,14.07-12.68,1.36-1.16,2.66-3.68,3.93-4.8,1.87-1.66,8.92-6.07,11.55-7.8,16.27-10.74,35.71-17.89,54.58-22.36,39.77-9.44,76.36-.99,111.5,19.02Z"/><path class="cls-1" d="M1002.26,466.11c4.77,8.14,5.2,12.41,6.31,21.57.27,2.24,1.29,5.77,1.35,7.9.06,2.11-3.41,16.17-4.51,18.06-.67,1.15-2.06,1.79-2.95,3.5-.48.93-.82,2.88-.92,3-.22.25-1.36.18-1.91.51-.6.37-1.64,2.51-2.32,3.1-8.14,6.98-20.3,7.82-29.89,3.71-2.55-1.09-6.91-3.07-8.26-5.34l-.85.4c.87-1.86-1.12-2.34-2.04-3.72-6.68-9.97-11.34-19.73-9.34-32.32,1-6.29,7.15-16.87,14.03-17.8.86-.11,8.87.78,9.8,1.05,2.96.87,7.82,5.6,9.08,8.43.75,1.7,1.52,3.79,2.09,5.29,2.09,5.5,1.53,5.8,1.25,11.63-.05.96.59,1.91.46,3.18-.39,3.61-3.14,7.93-7.14,5.35-4.27-2.77-.65-5.58-.65-8.99,0-2.45-1-9.28-1.9-11.5-3.06-7.59-12.17-8.47-16.95-1.78-1.54,2.15-2.5,5.81-2.65,8.43-.57,10.34,5.75,23.74,14.43,29.5,4.71,3.12,17.44,2.26,22.21-.69,1.54-.96,6.2-7.38,6.95-9.18,6.24-15.02,4.86-33.45-6.69-45.42-11.75-12.18-27.9-16.89-43.05-7.1-1.52.98-4.23,4.03-5.59,4.58-.6.25-1.29-.28-1.33-.23-.08.08-.01.91-.28,1.32-.88,1.36-2.48,2.7-3.43,3.96-11.05,14.68-12.53,33.1-4.95,50.13.37.84,5.76,9.98,6.15,10.44,1.86,2.23,6.51,5.9,8.98,7.61,1.38.95,15.55,8.25,14.25,9.93-1.05.09-2.41.6-3.44.49-1.09-.12-1.65-.69-2.38-.81-.99-.17-1.86,1.2-2.24-.59l-.3.82c-.82.69-2.38-.7-3.25-.96-6.49-1.87-10.7-3.26-15.11-8.85-1.64-2.08-2.93-5.78-4.39-7.59-3.27-4.03-4.59-4.04-7-9.59-7.13-16.45-3.65-32.26,2.73-48.16,2.16-5.38,10.05-14.64,14.95-17.77,22.12-14.15,47.5-8.04,60.7,14.49Z"/><path class="cls-1" d="M1018.06,115.71c2.26,3.63,4.83,6.44,6.96,9.86,1.41,2.27,8.31,14.84,8.71,16.63.89,3.98,1.91,19.32,1.38,23.33-.11.82-1.05,1.5-1.27,2.34-1.46,5.41-3.03,12.23-6.05,16.99-10.06,15.8-28.97,31.16-43.7,42.91-1.61,1.28-2.08.7-3.55,1.63-2.9,1.84-4.62,2.75-7.67,4.22-1.81.87-3.88,3.44-5.39,1.11-1.02-1.57.7-3.63,1.7-4.8,2.21-2.59,5.82-5.2,8.51-7.16,4.11-2.99,8.11-5.93,12.36-8.83,4.26-2.89,7.49-7.11,11.33-10.33,10.26-8.6,22.46-21.97,24.14-35.77.2-1.66-.19-3.5.02-5.04.5-3.64,1.76-5.76.84-10.01-3.54-16.25-11.65-29.88-24.95-40.04-18-13.75-38.98-20.04-61.22-12.26-10.26,3.59-17.66,11.93-24.6,19.87-4.9,5.61-6.76,8.5-10.12,14.99-4.45,8.59-8.75,17.4-13.53,25.67-2.24,3.88-5.13,9.19-8.55,12.16-2.92,2.54-8.21,5.89-11.7,2.96-.23-.96,7.95-10.66,9.11-12.47,6.93-10.76,11.98-23.45,18.97-34.48,8.38-13.22,19.07-24.36,32.69-32.28.99-.58,6.94-4.1,7.36-4.17.59-.09.88.68,1.87.55,1.88-.25,5.8-3.31,8.59-3.83,2.27-.42,6.22-.07,8.7-.14,14.95-.41,25.12,3.53,38.04,10.76,3.97,2.22,18.92,12.25,21.02,15.62Z"/><path class="cls-1" d="M1054.38,23.16c5.31,3.14,7.75,5.08,12.05,9.03,1.09,1,3.36,1.19,4.72,2.07.93.6,1.64,1.84,2.57,2.5,16.67,11.97,31.69,29.93,41.86,47.99,3.43,6.08,7.23,13.69,9.98,19.97,1.02,2.33,4.23,12.47,4.54,14.81.23,1.76.3,4-1.12,5.26l-3.53-5.22c-5.92-12.29-11.17-23.21-18.9-34.56-13.89-20.38-30.12-38.63-51.35-51.86-12.81-9.42-28.27-14.16-43.65-18.51-4.91-1.39-10.22-3.68-15.36-4.49-1.61-.26-3.4.16-4.85-.22-1.1-.29-1.63-1.55-3.31-1.75-2.61-.32-6.36.29-9.24.03-10.72-1-21.34-1.39-32.22-1.4l-17.1,3.28-1.12-.96c-.21,1.68-3.05,2.31-4.5,2.64-17.07,3.98-33.62,12.2-47.98,22.05-3.59,2.46-19.52,15.61-21.97,15.85-.55.05-1.08.1-1.57-.22-3.49-5.16,2.96-7.01,5.76-9.92,2.07-2.15,3.42-4.72,5.99-6.92,5.75-4.92,12.13-7.8,18.15-11.82,10.53-7.05,20.1-9.81,31.85-14.2,5.57-2.08,11.21-2.62,17.04-4.21,12.46-3.4,25.89-2.27,39.39-1.97,11.47.25,21.28,1.24,32.61,3.74,7.69,1.7,15.43,4.37,23.11,6.38,4.46,1.17,10.33,4.1,14.55,6.18,4.68,2.31,9.08,3.77,13.6,6.45Z"/><path class="cls-1" d="M1020.18,163.86c.14.25,1.02-.2.7,1.15-3.7,15.57-14.92,25.73-25.01,36.78-5.38,5.9-11.79,11.45-18.34,16.58-1.12.88-2.94,3.45-4.89,2.23-2.17-1.36,2.38-4.82,3.08-5.77,1.14-1.54,1.93-4.27,2.98-5.55,2.75-3.35,9.04-7.35,12.14-10.9,1.25-1.43,2.19-3.69,3.55-5.21,4.45-4.99,8.16-8.23,11.52-14.51,15.67-29.22-1.99-57.96-31.97-66.52-10.41-2.97-24.16-1.63-33.95,2.89-.92.42-7.03,4.01-7.48,4.5-.73.79-1.4,2.56-2.34,3.65-4.62,5.29-9.09,10.31-12.34,16.69-5.6,10.97-8.92,24.37-16.93,33.76-1.13,1.32-3.44,2.52-4.47,4.32-1.39.22-7.42.12-7.7-.85-.1-.35,2.79-5.82,3.23-6.42.98-1.33,4.32-3.6,4.96-4.96.18-.37-.28-.98-.03-1.6,2.5-6.12,6.2-11.64,9.26-17.5,2.42-4.62,4.65-11.16,7.92-15.12,2.64-3.22,2.63-3.04,4.81-6.71,3.37-5.67,7.31-9.07,12.54-12.8,15.7-11.18,41.05-14.05,56.78-1.65,1.59,1.25,2.84,3.13,4.49,4.26,4.67,3.2,8.78,4,13.28,8.84,5.58,6,13.4,20.47,14.52,28.38.25,1.8-1.15,10.62-.32,12.06Z"/><path class="cls-1" d="M1013.28,441.71c4.09,4.78,7.52,9.05,10.06,15.06,2.04,4.82,5.77,15.34,4.96,20.33-.13.8-.87,2.27-1.59,2.56-.84.33-.67-.48-.91-.9-2.83-5.14-3.67-10.67-6.14-16-1.87-4.04-3.86-6.96-6.75-10.3-4.31-4.99-8.38-10.24-13.64-14.47-4.63-3.73-12.94-8.68-18.7-9.78-23.17-4.46-51.9,6.89-64.02,27.45-4.64,7.87-10.44,20.17-12.44,29.08-.49,2.17.89,4.51-3.41,4.15-.7-4.64.18-9.08.74-13.67,1.48-12.14,8.2-23.34,15.65-32.83,5.83-7.43,17.52-14.35,26.13-17.65,25.94-9.92,52.17-3.91,70.05,16.99Z"/><path class="cls-1" d="M1019.39,355.52c-9.73,11.02-18.51,22.67-29.56,32.4-1.61,1.42-2.81,4.09-4.58,5.56-1.55,1.3-4.04,2.15-5.72,3.5-3.23,2.58-3.68,3.78-7.73,5.87-.2.1-.24.73-.7.91-1.37.55-4.99.43-6.6.33-.71-.04-4.55-.42-4.75-.54-2.62-1.61,4.21-4.66,4.97-5.27,6.86-5.4,13.82-10.77,20.73-16.13,3.4-2.64,5.74-8.61,9-12.2,7.47-8.25,14.66-16.8,22.6-24.4,4.39-4.2,8.12-8.6,12.41-12.94,1.31-.75,8.27-1.27,7.89,1.42-1.54,4.65-5.63,7.15-8.79,10.58-3.22,3.49-6.06,7.38-9.16,10.89Z"/><path class="cls-1" d="M993.97,344.36c-6.29,5.42-9.6,9.32-14.95,15.23-6.07,6.72-12.72,12.15-19.05,18.29-7.98,7.74-13.47,13.59-23.48,19.36-.9.52-7.57,3.93-8.01,4-2.82.47-3.76-3.61-1.98-5.7,1.22-1.42,7.07-5,7.32-5.38.15-.24-.31-.88-.15-1.3.37-.92,3.58-2.16,4.77-3.03,5.65-4.12,8.37-7.4,12.93-12.42,3.89-4.28,9.09-7.29,13.15-11.27,3.05-2.99,6.4-6.05,9.3-8.9.44-.43,1.24-2.94,2.17-3.59,1.48-1.03.79-.14,2.24-1.64,5.24-5.45,9.61-10.7,16.17-14.53.89-.52.5-1.41,2.49-1.66.96-.12,5.49-.14,6.25.07,4,1.1-.44,3.78-1.8,5.34-2.78,3.21-4.16,4.35-7.38,7.13Z"/><path class="cls-1" d="M1018.51,337.11c-12.84,11.39-21.57,24.21-33.47,36.33-4.89,4.98-10.15,9.68-15.07,14.46-4.37,4.25-15.99,13.18-21.49,15.35-3.64,1.44-7.99.42-11.84.37,1.5-4.41,5.65-5.03,8.9-6.99,4.67-2.83,9.78-7.68,13.83-11.28,7.16-6.37,16.33-13.39,22.41-20.68,3.98-4.77,7.42-7.93,11.53-12.43,3.33-3.64,6.58-7.08,10.14-10.6,2.42-2.39,7.37-8.27,10.04-9.31s6.3-1.29,7.49,1.94c0,.19-2.15,2.56-2.47,2.85Z"/><path class="cls-1" d="M1080.74,188.04c.15.17,1.4,3.86,1.48,4.32.59,3.72-4.2,9.48-6.16,12.67-11.23,18.26-26.79,36.29-44.33,49.19-2.98,2.19-12.19,7.39-15.16,3.78-.79-.96.16-.83.37-1.06.77-.86,1.69-1.85,2.55-2.61,7.16-6.3,14.95-11.97,21.75-18.69,8.71-8.6,20.04-21.95,26.33-32.19,2.48-4.05,5.54-9.15,8.2-12.87.66-.92,3.85-3.8,4.97-2.54Z"/><path class="cls-1" d="M988.22,331.29c.1,1.12.15,2.84-.68,3.67-.39.39-1.12.34-1.43.63-7.1,6.4-14.01,10.6-20.74,17.5-10.1,10.36-20.61,20.74-31.72,29.8-1.73,1.41-4.8,4.65-6.92,4.64-3.02,0-1.81-3.14-1.84-4.88-.01-.8-.55-1.7-.48-2.3.26-2.57,6.47-6.77,8.33-8.53,7.92-7.49,15.94-14.41,24.14-21.46,1.86-1.6,3.72-4.8,5.6-6.38,3.57-2.99,10.83-6.33,13.76-9.28.67-.68.67-1.6,1.27-2.07,1.34-1.07,9.76-2.32,10.71-1.33Z"/><path class="cls-1" d="M1087.23,202.3c-.36,1.7.76,3.01.96,4.33.72,4.86-4.05,10.64-6.81,14.33-.45.6-.45,1.58-.98,2.25-1,1.27-3.78,2.57-5.08,4.13-3.71,4.44-6.61,10.49-10.82,14.98-3.35,3.58-12.52,12.65-16.4,14.93-2.67,1.57-9.44,3.8-10.99.1.1-.55,2.51-2.61,3.03-3.22,4.11-4.89,5.14-5.33,10.02-9.13,2.84-2.21,4.48-5.51,6.73-7.99,7.92-8.72,15.84-17.46,22.5-27.27,1.82-2.67,3.36-9.33,7.84-7.46Z"/><path class="cls-1" d="M1026.94,364.45l-.92-.47c.2,2.99-2.54,6.77-4.42,9.18-3.22,4.12-6.67,8.33-10.3,12.26-3.69,3.99-7.66,7.96-11.56,11.49-1.56,1.41-2.84,3.81-4.35,4.86-.69.48-7.58,2.57-8.36,2.62-.49.03-5.32-1.41-5.5-1.67-.22-3.66,3.46-3.89,5.65-5.01,7.73-3.93,16.99-16.96,22.71-23.83,3.89-4.67,9.94-13.21,14.52-16.82.82-.65,4.41-2.81,5.28-3.03,3.27-.82,0,2.7-.18,3.06-.98,1.97-2.19,5.23-2.57,7.35Z"/><path class="cls-1" d="M969.3,330.87c1.7,2.7-4.43,5.7-5.71,6.84-3.97,3.54-8.18,6.23-11.74,9.45-1.72,1.56-3.35,4.42-5.03,5.57-4.85,3.31-6.61,5.59-10.86,9.41-1.05.95-6.89,5.95-7.62,6.2-4.88,1.68-4.23-6.06-2.94-8.47.6-1.12,1.88-1.44,2.51-2.23,3.03-3.77,7.57-8.96,11.09-12.28,1.19-1.12,3.42-1.69,4.98-2.85,6.64-4.93,7.99-9.15,17.42-11.6,1.04-.27,7.51-.65,7.89-.05Z"/><path class="cls-1" d="M1092.36,216.52c.38,3.33.9,7.11-.5,10.32-1.3,2.97-5.15,6.21-6.98,8.67-4.54,6.12-8.07,13.41-14.06,18.31-2.81,2.3-9.98,7.03-13.49,4.39-1.42-4.22,4.44-5.95,6.95-8.73,7.77-8.61,15.26-17.69,21.74-27.1,1.72-2.49,2.64-6.72,6.34-5.86Z"/><path class="cls-1" d="M1095.13,232.64c.57,4.36,1.7,11.36-1.38,14.85-2.61,2.96-6.57,7.12-9.65,9.37-.66.48-1.34,1.56-1.88,1.81-1.49.68-5.18.17-6.93.04-1.54-1.08,1.69-5.68,2.58-6.69,4.36-5.01,9.35-9.39,12.41-15.7l4.85-3.67Z"/><path class="cls-1" d="M1025.04,379.26c.57.36.9,2.56-.4,2.45,1.12,1.51.44,3.29.43,5.1-.02,3.28.94,2.61-1.58,5.75-1.94,2.43-5.98,6.36-8.3,8.29-3.36,2.79-7.73,4.1-12.01,2.8l-.59-1.11c1.74-3.89,5.88-4.78,8.44-8.16.67-.89.64-1.98,1.6-3.01s2.26-1.13,3.06-2c1.69-1.83,3.18-5.74,5.02-7.88.88-1.02,2.84-3.17,4.32-2.23Z"/><path class="cls-1" d="M846.63,60.58c-2.24,4.64-8.64,10.55-12.24,14.81-1.22,1.45-2.01,3.59-3.53,5.12-1.28,1.29-4.12,2.68-5.1,3.88-.65.79-1,3.59-2.46,2.87l-.72-1.18,4.32-10.45c5.22-9.15,11.29-14.4,19-21.09.78-.67,1.07-1.37,1.67-2.11l2.01.73c-1.29,2.33-1.8,5.05-2.94,7.43Z"/><path class="cls-1" d="M924.67,343.48c.08-.44.66-1.37.93-1.84.47-.8,4.23-4.84,5.04-5.56,2.03-1.8,9.58-5.89,12.19-5.73,1.59.1,2.15,1.74,3.46,2.56-1.39,4.25-6.16,5.58-9.14,8.29-2.98,2.71-3.45,3.54-7.06,6.17-.67.48-.81,1.52-1.76,2.05s-2.56.67-3.65.72c.25-2.04-.34-4.76,0-6.68Z"/><path class="cls-1" d="M856.17,402.99l-.62-.77c.08-1.4-.4-2.74-.51-4.09-.75-9.1.25-19.83.45-29,.05-2.28-.4-4.51-.02-6.7-.79-.8-2.95,7.96-3.33,9.8-1.1,5.4-4.18,12.54-5.67,18.3-.51,1.98-1.81,11.54-2.97,12.23-2.55.28-6.76,1.02-8.1-1.59-2.02-6.49-4.52-12.84-6.45-19.36-.88-2.97-1.36-4.77-2.38-7.75-.55-1.61-1.59-10.31-1.97-10.71-.63-.13-1.11.16-1.3.77-.15.49-.54,5.03-.56,5.89-.1,5.24.39,11.21.46,16.63.05,3.93.59,9.71.38,13.46-.23,4.2-1.78,2.5-4.36,2.59-2.85.1-5.91,1.39-7.75-1.57l-.23-60.12,1.67-1.48c5.67,1.22,11.73-1.07,17.12.89l9.08,37.22c.74-.73,1.19-1.68,1.49-2.66,3.16-10.44,4.36-21.64,7.63-32,1.59-5.04,4.26-2.64,7.93-2.76,1.62-.05,3.26-.88,5.07-.87.62,0,4.57.57,4.85.72,1.78,1.01.38,7.2.42,9.22.23,13.39.54,26.74.52,40.08,0,2.05.13,11.77-.44,12.51-.19.24-1.91,1.11-2.12,1.11h-8.29Z"/><path class="cls-1" d="M843.85,196.63l7.71,36.3c.96.28.99-1.7,1.07-2.14,1.33-7.07,1.82-14.51,2.89-21.51.4-2.63,1.28-10.27,2.13-12.19.25-.56.55-1.03,1.24-.98,1.84.63,9.25-.99,9.93.75.16.42.31,2.35.26,2.91-.31,3.07-1.79,6.89-2.45,10-2.27,10.72-5.54,28.26-7.5,37.2-.15.66-.44,1.9-.98,3.44-.33.93-.66,1.7-.92,2.26-1.76,1.22-10.63,1.61-11.48.23l-7.56-33.34-6.01,24.87c-.77,2.51-.07,7.51-2.52,9-1.24.75-5.38-.06-7.07.24l-.53-.94-.52.95c-1.13.06-2.8-.08-3.29-1.28-.65-1.62-1.41-5.13-1.81-6.95-1.14-5.09-1.53-10.42-2.49-15.48-2.08-10.95-4.66-21.87-6.1-32.88.57-1.46,7.57-1.13,8.93-.82.46.11,1.58.62,1.86,1.01l6.2,37.02c.76.06,1.02-.51,1.14-1.16.53-2.97.5-6.56,1.03-9.57.34-1.93.93-4.22,1.34-6.5,1.18-6.56,2.43-13.12,3.87-19.63.31-.4.72-.98,1.17-1.18,1.28-.57,9.73-.4,10.46.35Z"/><path class="cls-1" d="M889.57,364.74c4.83,1.13,11.2-.4,15.89.46.52.09.86.23,1.15.69v9.68c-.95,1.1-2.54,1.09-3.88,1.16-4.16.2-8.68-.25-12.86-.05-.96.73-.29,7.37-.28,9.06,0,2.73-1.63,5.62,2.58,6.16,3.06.4,11.04-.8,14.67-.91,2.19-.07,2.75.32,3.01,2.56.15,1.3.09,8.89-.52,9.41-1.57-.17-3.2.32-4.71.34-6.84.07-13.56-.12-20.27,0-1.73.03-6.4-.04-7.27-1.43-.16-.25-.44-5.33-.44-6,.02-2.31.46-4.54.51-6.93.05-2.73-.43-12.46-.5-13.79-.52-9.86.46-21.06.51-30.9.02-3.02-1.38-4.33,3.04-4.67,7.07-.53,14.51.29,21.6.31,1.09,0,7.58-1.14,7.58.21v10.14c0,1.86-4.37,1.11-5.28,1.13-2.71.06-5.47.28-8.16.23-1.82-.03-4.81-1.63-6.38.49v12.67Z"/><path class="cls-1" d="M886.8,228.78l.37,11.29c-1.16,3.02,1.62,10.81-.85,12.89-1.24,1.05-9.88,1.19-10.58-.11l-.18-55.43c.34-2.25,10.57-1.2,11.26-.7,1.34.97.15,7.83.11,9.7-.03,1.21.39,2.41.37,3.67s-1.07,7.98-.49,8.53l12.15.33c.36-.04,1-.29,1.22-.54.89-1.02.38-7.72.48-9.71.13-2.52.32-11.01,2.1-12.14s3.3-.1,5-.1c1.16,0,2.41-.67,3.59-.33,2.83.81,1.06,6.64.97,8.98-.42,11.34-.59,22.91-.48,34.29.03,3.31.86,9.16.29,12.17-.36,1.9-3.61,1.97-5.34,2.03-4.7.17-5.76-.19-6.18-5.23-.48-5.73.41-11.88.48-17.54,0-.73-.39-1.36-.47-2.06h-13.82Z"/><path class="cls-1" d="M948.85,252.59c-2.88,1.66-10.04,2.78-13.32,2.34-7.26-.98-13.16-9.07-14.59-15.83-1.15-5.48-1.43-23.88-.19-28.67,2-7.76,7.33-14.9,15.69-16.1,1.79-.26,10.42,1.2,12.08,1.99,1.01.48,5.94,5.95,6.67,7.15,5.52,8.99,5.06,33.02,0,42.33-.52.95-1.54,2.47-2.26,3.27-.57.63-3.49,3.19-4.07,3.53ZM939.55,204.73c-2.82-.03-4.84,2.17-5.5,2.88-2.27,2.46-3.56,5.67-3.02,17.71.05,1.16.16,10.85,2.44,15.99,2.24,5.03,9.6,4.28,11.78-.37,2.3-4.89,2.48-18.43,1.89-23.91-.17-1.62.53-4.67-1.12-7.64-.27-.48-2.64-4.63-6.49-4.67Z"/><path class="cls-1" d="M911.91,268.88c.11.01,2.16.21,3.09,1.98,2.17,4.12,3.28,9.18,5.01,13.33.18.44.8.41,1.02.93,1.91,4.65,3.48,9.52,5.4,14.17.64.69.84-.05.92-.68.22-1.7.18-4.62.2-6.46.06-6.09-.08-12.34-.18-18.45-.03-1.85-1.42-3.09.79-4.27,1.12-.6,9.19-.28,9.57.34l-.71,52.58c-2.24-.24-9.59.57-11.09-1.12l-8.18-19.47-4.68-8.91-.07,28.28c-.39,1.14-9.93,2.69-10.27-1.94-.6-8.2.67-17.01.7-25.18.02-7.58-1.42-15.91-.52-23.53.08-.67.06-1.18.71-1.59,2.62.25,5.75-.34,8.29,0Z"/><path class="cls-1" d="M852.56,270.88c1.26.59,4.06,3.15,4.96,4.48,1.15,1.72,3.18,6.09,3.44,8.08.71,5.41.35,23.66-2.09,28.25-5.79,10.88-18.45,11.59-29.45,10.67-2.55-.21-2.78-.42-2.99-2.99-.51-6.21.43-12.81.43-18.96,0-7.41-.23-14.08.04-21.58.07-1.96-.86-8.22.49-9.22,1.77-1.32,2.98-.17,4.36-.26,6.48-.42,14.75-1.33,20.82,1.53ZM837.57,278.62l-1,31.01c.34,2.18,5.78,1.92,7.48,1.52,8.97-2.12,6.28-23.49,6.07-24.8-1.15-7.12-6-8.94-12.56-7.73Z"/><path class="cls-1" d="M1121.65,282.13c-1.26,1.24-9.16,2.07-10.45.3-1.3-1.79-1.55-5.67-5.39-6.05-4.2-.41-7.07,2.37-6.63,6.56.5,4.74,6.17,5.29,9.39,7.2,1.11.65,2.35,2.09,3.56,2.89,5.36,3.53,9.8,5.19,10.36,12.58.99,13.11-8.62,18.95-20.72,17.6-7.22-.81-12.58-4.96-13.89-12.37-1.33-7.46,5.53-4.64,10.32-5.03.07.74.23,1.78.64,2.97.11.32.68,1.91,1.41,2.82,1.72,2.16,6.52,3.43,9.5.79,2.29-2.03,1.55-6.27-.1-8.36-.22-.28-1.84-1.32-2.31-1.6-5.82-3.54-14.52-5.9-17.91-12.5-2.16-4.2-1.28-12.32,1.56-16.16,3.85-5.2,12.78-8.02,18.93-6.64.84.19,7.75,3.35,8.19,3.79,1.47,1.45,5.14,9.64,3.55,11.2Z"/><path class="cls-1" d="M889.8,290.08c1.09.05,2.86-.43,3.36,1.24.24.8,0,8.57-.42,8.85-4.69.51-9.77-.97-14.23.28l.07,10.53,1.1.75,16.06.42c.81.59.49,8.11.21,8.96-.3.91-1.6,1.14-2.45,1.23-4.36.5-9.71-.56-13.81-.48-1.33.02-2.93.85-4.22.89-1.91.05-4.65-.81-6.8-.47-.98-.34-1.14-3.78-1.14-4.75-.01-13.06.49-25.99.41-39.22-.02-3.02-1.36-6.67.9-9.2,4.67.02,9.37-.27,14.08-.24,1.66,0,3.51.45,5.04.47,1.76.03,7.27-1.83,7.61,1.19.09.79-.38,1.56-.35,2.3.06,1.64.88,5.31-.31,6.25-1.51,1.2-5.84-.1-7.88-.08-2.67.02-5.68.95-8.52.5v10.6h11.29Z"/><path class="cls-1" d="M1065.56,310.59c.57.64,1.25.99,2.1,1.12,4.2.66,10.24-.71,14.25.03.52.1.93.16,1.09.76,0,3.11.95,8.38-2.77,9.54l-23.16.28-1.85-.92-.03-51.59c1.94-1.83,4.27-.41,6.45-.42,3.43-.02,6.69-.03,10.14,0s6.68-.77,9.93.17c.38.25.6,1.09.65,1.56.07.56-.12,5.65-.24,6.26s-.3,1.11-.9,1.41c-.51.25-5.61.54-6.69.56-2.83.05-5.81-1.02-8.51.35l-.46,10.38c3.77.08,8.58-.46,12.23-.03.67.08,1.18.06,1.59.71v8.3c0,.25-1.15,1.17-1.63,1.15-3.23.22-8.02-.55-11.04,0-.52.09-.86.23-1.15.69v9.68Z"/><path class="cls-1" d="M1001.52,322.34l.06-51.79c1.31-2.55,5.43-1.64,7.99-1.67,3.11-.04,6.57.42,9.7.44,1.95.01,6-.87,7.72-.36,2.46.73,1.7,7.93,1.13,9.96-4.78.92-9.95.72-14.81.23-.44.03-1.67.79-1.67,1.02v9.45s-.09.44.2.73c.23.23.61.29.92.13,4.4-.44,9.12-.66,13.62.06v7.6c0,3.95-11.97.66-14.54,2.5l-.22,21.69c-.74-.27-1.47,0-2.06,0h-8.06Z"/><path class="cls-1" d="M976.09,269.43c.52,1.57,1.43,7.98.12,8.93-2.2.49-4.49.04-6.71.2-1.06.08-4.52.42-4.78,1.21l-.16,41.32c-.63,2.15-7.86,1.23-9.76.83-.77-.56-.23-6.75-.26-8.13-.09-4.55-.47-9.25-.5-13.79-.04-6.49.04-12.89.9-19.29-.7-2.43-9.38-.45-11.27-2.13-.44-3.18-.91-6.02-.14-9.18l32.56.02Z"/><path class="cls-1" d="M818.57,269.39c.61,5.68.66,11.5.71,17.23.08,8.83-.46,17.85-.68,26.71-.04,1.51,1.02,8.02-.32,8.54l-8.65.26c-2.3-.38-1.63-5.95-1.6-7.86.22-12.13.23-24.28.49-36.42.06-2.73-.99-6.31.15-8.57.68-.55,9.39-.53,9.89.1Z"/><path class="cls-1" d="M983.88,268.98c2.08-.48,8.36-.7,8.88,1.98.9,4.69-.68,33.96-.87,39.2-.13,3.46,2.02,8.23-.23,11.76-2.13.43-8.97,1.5-9.48-1.21-.58-3.1.03-8.6,0-11.99-.07-10.84-.02-21.83,0-32.72,0-2.37-1.53-6.27,1.69-7.02Z"/><path class="cls-1" d="M1037.69,269.12c1.53-.33,5.9-.31,7.28.31,2.33,1.05.81,8.4.78,10.71-.15,10.82-.34,21.98-.29,32.83.01,2.07.83,4.82.78,6.37-.14,4.25-8.88,3.65-10.42,2.11-1.54-1.55-.21-8.7-.18-11.3.11-9.87-.08-19.8-.08-29.58,0-2.94-1.74-10.61,2.14-11.45Z"/></svg>